<svg width="12" height="16" viewBox="0 0 12 16" fill="none" xmlns="http://www.w3.org/2000/svg">
<g clip-path="url(#clip0_1_6322)">
<g clip-path="url(#clip1_1_6322)">
<g clip-path="url(#clip2_1_6322)">
<path d="M0.797277 1.59455C1.2376 1.59455 1.59455 1.2376 1.59455 0.797277C1.59455 0.356953 1.2376 0 0.797277 0C0.356953 0 0 0.356953 0 0.797277C0 1.2376 0.356953 1.59455 0.797277 1.59455Z" fill="#040017"/>
<path d="M3.16507 4.01057C3.6054 4.01057 3.96235 3.65362 3.96235 3.21329C3.96235 2.77297 3.6054 2.41602 3.16507 2.41602C2.72475 2.41602 2.3678 2.77297 2.3678 3.21329C2.3678 3.65362 2.72475 4.01057 3.16507 4.01057Z" fill="#040017"/>
<path d="M3.16507 1.59455C3.6054 1.59455 3.96235 1.2376 3.96235 0.797277C3.96235 0.356953 3.6054 0 3.16507 0C2.72475 0 2.3678 0.356953 2.3678 0.797277C2.3678 1.2376 2.72475 1.59455 3.16507 1.59455Z" fill="#040017"/>
<path d="M5.53275 4.01057C5.97307 4.01057 6.33003 3.65362 6.33003 3.21329C6.33003 2.77297 5.97307 2.41602 5.53275 2.41602C5.09243 2.41602 4.73547 2.77297 4.73547 3.21329C4.73547 3.65362 5.09243 4.01057 5.53275 4.01057Z" fill="#040017"/>
<path d="M5.53275 6.37825C5.97307 6.37825 6.33003 6.02129 6.33003 5.58097C6.33003 5.14064 5.97307 4.78369 5.53275 4.78369C5.09243 4.78369 4.73547 5.14064 4.73547 5.58097C4.73547 6.02129 5.09243 6.37825 5.53275 6.37825Z" fill="#040017"/>
<path d="M5.5328 11.1618C5.97316 11.1618 6.33014 10.8048 6.33014 10.3645C6.33014 9.92411 5.97316 9.56714 5.5328 9.56714C5.09245 9.56714 4.73547 9.92411 4.73547 10.3645C4.73547 10.8048 5.09245 11.1618 5.5328 11.1618Z" fill="#040017"/>
<path d="M3.16507 13.5325C3.6054 13.5325 3.96235 13.1756 3.96235 12.7352C3.96235 12.2949 3.6054 11.938 3.16507 11.938C2.72475 11.938 2.3678 12.2949 2.3678 12.7352C2.3678 13.1756 2.72475 13.5325 3.16507 13.5325Z" fill="#040017"/>
<path d="M5.53275 13.5325C5.97307 13.5325 6.33003 13.1756 6.33003 12.7352C6.33003 12.2949 5.97307 11.938 5.53275 11.938C5.09243 11.938 4.73547 12.2949 4.73547 12.7352C4.73547 13.1756 5.09243 13.5325 5.53275 13.5325Z" fill="#040017"/>
<path d="M8.00016 6.37825C8.44048 6.37825 8.79743 6.02129 8.79743 5.58097C8.79743 5.14064 8.44048 4.78369 8.00016 4.78369C7.55983 4.78369 7.20288 5.14064 7.20288 5.58097C7.20288 6.02129 7.55983 6.37825 8.00016 6.37825Z" fill="#040017"/>
<path d="M8.00016 8.74592C8.44048 8.74592 8.79743 8.38897 8.79743 7.94864C8.79743 7.50832 8.44048 7.15137 8.00016 7.15137C7.55983 7.15137 7.20288 7.50832 7.20288 7.94864C7.20288 8.38897 7.55983 8.74592 8.00016 8.74592Z" fill="#040017"/>
<path d="M8.00021 11.1618C8.44057 11.1618 8.79754 10.8048 8.79754 10.3645C8.79754 9.92411 8.44057 9.56714 8.00021 9.56714C7.55986 9.56714 7.20288 9.92411 7.20288 10.3645C7.20288 10.8048 7.55986 11.1618 8.00021 11.1618Z" fill="#040017"/>
<path d="M0.797331 16C1.23768 16 1.59466 15.643 1.59466 15.2027C1.59466 14.7623 1.23768 14.4053 0.797331 14.4053C0.356977 14.4053 0 14.7623 0 15.2027C0 15.643 0.356977 16 0.797331 16Z" fill="#040017"/>
<path d="M3.16513 16C3.60548 16 3.96246 15.643 3.96246 15.2027C3.96246 14.7623 3.60548 14.4053 3.16513 14.4053C2.72478 14.4053 2.3678 14.7623 2.3678 15.2027C2.3678 15.643 2.72478 16 3.16513 16Z" fill="#040017"/>
<path d="M10.3706 8.74592C10.811 8.74592 11.1679 8.38897 11.1679 7.94864C11.1679 7.50832 10.811 7.15137 10.3706 7.15137C9.93032 7.15137 9.57336 7.50832 9.57336 7.94864C9.57336 8.38897 9.93032 8.74592 10.3706 8.74592Z" fill="#040017"/>
</g>
</g>
</g>
<defs>
<clipPath id="clip0_1_6322">
<rect width="12" height="16" fill="white"/>
</clipPath>
<clipPath id="clip1_1_6322">
<rect width="12" height="16" fill="white"/>
</clipPath>
<clipPath id="clip2_1_6322">
<rect width="12" height="16" fill="white"/>
</clipPath>
</defs>
</svg>
