<svg width="14" height="19" viewBox="0 0 14 19" fill="none" xmlns="http://www.w3.org/2000/svg">
<g clip-path="url(#clip0_1174_278061)">
<path d="M0.917469 1.83493C1.42417 1.83493 1.83493 1.42417 1.83493 0.917469C1.83493 0.410765 1.42417 0 0.917469 0C0.410765 0 0 0.410765 0 0.917469C0 1.42417 0.410765 1.83493 0.917469 1.83493Z" fill="#040017"/>
<path d="M3.64207 4.61509C4.14878 4.61509 4.55954 4.20432 4.55954 3.69761C4.55954 3.19091 4.14878 2.78015 3.64207 2.78015C3.13537 2.78015 2.72461 3.19091 2.72461 3.69761C2.72461 4.20432 3.13537 4.61509 3.64207 4.61509Z" fill="#040017"/>
<path d="M3.64207 1.83493C4.14878 1.83493 4.55954 1.42417 4.55954 0.917469C4.55954 0.410765 4.14878 0 3.64207 0C3.13537 0 2.72461 0.410765 2.72461 0.917469C2.72461 1.42417 3.13537 1.83493 3.64207 1.83493Z" fill="#040017"/>
<path d="M6.36669 4.61509C6.87339 4.61509 7.28416 4.20432 7.28416 3.69761C7.28416 3.19091 6.87339 2.78015 6.36669 2.78015C5.85999 2.78015 5.44922 3.19091 5.44922 3.69761C5.44922 4.20432 5.85999 4.61509 6.36669 4.61509Z" fill="#040017"/>
<path d="M6.36669 7.33977C6.87339 7.33977 7.28416 6.92899 7.28416 6.42229C7.28416 5.91558 6.87339 5.50482 6.36669 5.50482C5.85999 5.50482 5.44922 5.91558 5.44922 6.42229C5.44922 6.92899 5.85999 7.33977 6.36669 7.33977Z" fill="#040017"/>
<path d="M6.36675 12.8446C6.8735 12.8446 7.28429 12.4338 7.28429 11.9271C7.28429 11.4203 6.8735 11.0095 6.36675 11.0095C5.86002 11.0095 5.44922 11.4203 5.44922 11.9271C5.44922 12.4338 5.86002 12.8446 6.36675 12.8446Z" fill="#040017"/>
<path d="M3.64207 15.5727C4.14878 15.5727 4.55954 15.162 4.55954 14.6552C4.55954 14.1485 4.14878 13.7378 3.64207 13.7378C3.13537 13.7378 2.72461 14.1485 2.72461 14.6552C2.72461 15.162 3.13537 15.5727 3.64207 15.5727Z" fill="#040017"/>
<path d="M6.36669 15.5727C6.87339 15.5727 7.28416 15.162 7.28416 14.6552C7.28416 14.1485 6.87339 13.7378 6.36669 13.7378C5.85999 13.7378 5.44922 14.1485 5.44922 14.6552C5.44922 15.162 5.85999 15.5727 6.36669 15.5727Z" fill="#040017"/>
<path d="M9.20605 7.33977C9.71275 7.33977 10.1235 6.92899 10.1235 6.42229C10.1235 5.91558 9.71275 5.50482 9.20605 5.50482C8.69934 5.50482 8.28857 5.91558 8.28857 6.42229C8.28857 6.92899 8.69934 7.33977 9.20605 7.33977Z" fill="#040017"/>
<path d="M9.20605 10.0645C9.71275 10.0645 10.1235 9.65373 10.1235 9.14701C10.1235 8.64031 9.71275 8.22955 9.20605 8.22955C8.69934 8.22955 8.28857 8.64031 8.28857 9.14701C8.28857 9.65373 8.69934 10.0645 9.20605 10.0645Z" fill="#040017"/>
<path d="M9.2061 12.8446C9.71285 12.8446 10.1236 12.4338 10.1236 11.9271C10.1236 11.4203 9.71285 11.0095 9.2061 11.0095C8.69937 11.0095 8.28857 11.4203 8.28857 11.9271C8.28857 12.4338 8.69937 12.8446 9.2061 12.8446Z" fill="#040017"/>
<path d="M0.917532 18.4121C1.42426 18.4121 1.83506 18.0013 1.83506 17.4946C1.83506 16.9878 1.42426 16.577 0.917532 16.577C0.410793 16.577 0 16.9878 0 17.4946C0 18.0013 0.410793 18.4121 0.917532 18.4121Z" fill="#040017"/>
<path d="M3.64214 18.4121C4.14887 18.4121 4.55967 18.0013 4.55967 17.4946C4.55967 16.9878 4.14887 16.577 3.64214 16.577C3.13541 16.577 2.72461 16.9878 2.72461 17.4946C2.72461 18.0013 3.13541 18.4121 3.64214 18.4121Z" fill="#040017"/>
<path d="M11.934 10.0645C12.4408 10.0645 12.8515 9.65373 12.8515 9.14701C12.8515 8.64031 12.4408 8.22955 11.934 8.22955C11.4274 8.22955 11.0166 8.64031 11.0166 9.14701C11.0166 9.65373 11.4274 10.0645 11.934 10.0645Z" fill="#040017"/>
</g>
<defs>
<clipPath id="clip0_1174_278061">
<rect width="13.809" height="18.4121" fill="white"/>
</clipPath>
</defs>
</svg>
