<svg width="64" height="72" viewBox="0 0 64 72" fill="none" xmlns="http://www.w3.org/2000/svg">
<g clip-path="url(#clip0_1_6295)">
<g clip-path="url(#clip1_1_6295)">
<g clip-path="url(#clip2_1_6295)">
<g clip-path="url(#clip3_1_6295)">
<path d="M34.3676 1.59281L62.7099 17.9588V22.0279C62.7099 23.6428 61.8512 25.1357 60.4554 25.9477L56.3181 28.3545L62.7099 31.4445V35.785C62.7099 37.3949 61.8567 38.8839 60.4679 39.6976L56.3181 42.1294L62.7099 45.7158V50.2531C62.7099 51.8546 61.8653 53.3372 60.4879 54.1539L32.1 70.9851L3.71206 54.1539C2.3346 53.3372 1.49 51.8546 1.49 50.2531V45.7158L7.8819 42.1294L3.73208 39.6976C2.3433 38.8839 1.49 37.3949 1.49 35.785V31.4445L7.8819 28.3545L3.74457 25.9477C2.34874 25.1357 1.49 23.6428 1.49 22.0279V17.9588L29.8323 1.59281C31.2354 0.782541 32.9645 0.78254 34.3676 1.59281Z" fill="white" fill-opacity="0.15"/>
<path d="M34.3676 1.59281L62.7099 17.9588V22.0279C62.7099 23.6428 61.8512 25.1357 60.4554 25.9477L56.3181 28.3545L62.7099 31.4445V35.785C62.7099 37.3949 61.8567 38.8839 60.4679 39.6976L56.3181 42.1294L62.7099 45.7158V50.2531C62.7099 51.8546 61.8653 53.3372 60.4879 54.1539L32.1 70.9851L3.71206 54.1539C2.3346 53.3372 1.49 51.8546 1.49 50.2531V45.7158L7.8819 42.1294L3.73208 39.6976C2.3433 38.8839 1.49 37.3949 1.49 35.785V31.4445L7.8819 28.3545L3.74457 25.9477C2.34874 25.1357 1.49 23.6428 1.49 22.0279V17.9588L29.8323 1.59281C31.2354 0.782541 32.9645 0.78254 34.3676 1.59281Z" fill="url(#paint0_linear_1_6295)"/>
<path d="M62.7099 17.9588L34.3676 1.59281C32.9645 0.782539 31.2354 0.782541 29.8323 1.59281L1.49 17.9588M62.7099 17.9588L32.1 35.161M62.7099 17.9588V22.0279C62.7099 23.6428 61.8512 25.1357 60.4554 25.9477L56.3181 28.3545M1.49 17.9588L32.1 35.161M1.49 17.9588V22.0279C1.49 23.6428 2.34874 25.1357 3.74457 25.9477L7.8819 28.3545M32.1 35.161V42.4426M56.3181 28.3545L32.1 42.4426M56.3181 28.3545L62.7099 31.4445M7.8819 28.3545L32.1 42.4426M7.8819 28.3545L1.49 31.4445M62.7099 31.4445L32.1 49.6436M62.7099 31.4445V35.785C62.7099 37.3949 61.8567 38.8839 60.4679 39.6976L56.3181 42.1294M32.1 70.9851L60.4879 54.1539C61.8653 53.3372 62.7099 51.8546 62.7099 50.2531V45.7158M32.1 70.9851L3.71206 54.1539C2.3346 53.3372 1.49 51.8546 1.49 50.2531V45.7158M32.1 70.9851V63.9954M62.7099 45.7158L32.1 63.9954M62.7099 45.7158L56.3181 42.1294M1.49 45.7158L32.1 63.9954M1.49 45.7158L7.8819 42.1294M56.3181 42.1294L32.1 56.7943M7.8819 42.1294L3.73208 39.6976C2.3433 38.8839 1.49 37.3949 1.49 35.785V31.4445M7.8819 42.1294L32.1 56.7943M1.49 31.4445L32.1 49.6436M32.1 49.6436V56.7943" stroke="white" stroke-opacity="0.15" stroke-width="1.58824" stroke-linecap="round" stroke-linejoin="round"/>
<path d="M29.8181 1.75065L1.70875 17.9381L32.115 35.0007L62.4119 17.9382C53.99 13.1257 36.6431 3.17252 34.6306 1.86002C32.6181 0.547523 30.5838 1.24023 29.8181 1.75065Z" fill="#1C1C1C"/>
<path d="M29.6199 1.40697C30.4881 0.840154 32.6802 0.113817 34.8474 1.52708C36.847 2.83117 54.1774 12.7753 62.6091 17.5935L63.2166 17.9412L62.6072 18.2839L32.3103 35.3464L32.115 35.4558L31.9207 35.3474L1.51441 18.2839L0.905041 17.9421L1.51051 17.5945L29.6199 1.40697Z" stroke="white" stroke-opacity="0.15" stroke-width="0.794118"/>
</g>
</g>
</g>
</g>
<defs>
<linearGradient id="paint0_linear_1_6295" x1="1.49" y1="35.9851" x2="55.3756" y2="53.2168" gradientUnits="userSpaceOnUse">
<stop stop-color="#5814F9"/>
<stop offset="0.516215" stop-color="#814BFE"/>
<stop offset="1" stop-color="#5814F9"/>
</linearGradient>
<clipPath id="clip0_1_6295">
<rect width="64" height="72" fill="white"/>
</clipPath>
<clipPath id="clip1_1_6295">
<rect width="63.98" height="70.89" fill="white" transform="translate(0 0.540039)"/>
</clipPath>
<clipPath id="clip2_1_6295">
<rect width="63.98" height="70.89" fill="white" transform="translate(0 0.540039)"/>
</clipPath>
<clipPath id="clip3_1_6295">
<rect width="65" height="72" fill="white" transform="translate(-0.509998 -0.0148926)"/>
</clipPath>
</defs>
</svg>
