<svg width="50" height="50" viewBox="0 0 50 50" fill="none" xmlns="http://www.w3.org/2000/svg">
<rect width="50" height="50" rx="25" fill="url(#paint0_linear_1174_278589)"/>
<path d="M33.2308 24.0786C33.2024 23.9584 33.1448 23.847 33.063 23.7545C32.9812 23.6619 32.8779 23.591 32.7621 23.548L27.3611 21.522L28.7355 14.6473C28.7666 14.4876 28.745 14.3221 28.6738 14.1758C28.6026 14.0294 28.4857 13.9102 28.3408 13.8361C28.1959 13.7621 28.0309 13.7371 27.8705 13.7651C27.7102 13.793 27.5634 13.8723 27.4521 13.9911L16.9521 25.2411C16.8668 25.3309 16.8051 25.4405 16.7725 25.5601C16.7399 25.6796 16.7374 25.8053 16.7653 25.926C16.7932 26.0467 16.8505 26.1587 16.9322 26.2518C17.0138 26.345 17.1173 26.4164 17.2333 26.4598L22.6361 28.4858L21.2655 35.353C21.2344 35.5127 21.2561 35.6782 21.3273 35.8245C21.3985 35.9709 21.5153 36.0901 21.6602 36.1642C21.8051 36.2382 21.9702 36.2632 22.1305 36.2352C22.2908 36.2073 22.4377 36.128 22.549 36.0092L33.049 24.7592C33.1327 24.6693 33.1931 24.5603 33.2248 24.4416C33.2565 24.3229 33.2586 24.1983 33.2308 24.0786ZM23.254 33.0626L24.2355 28.152C24.2706 27.9779 24.2428 27.7969 24.157 27.6413C24.0711 27.4858 23.9328 27.3658 23.7668 27.3026L18.813 25.4417L26.7461 16.9423L25.7655 21.853C25.7304 22.0271 25.7582 22.2081 25.8441 22.3636C25.9299 22.5192 26.0682 22.6392 26.2343 22.7023L31.1843 24.5586L23.254 33.0626Z" fill="white"/>
<rect x="1" y="1" width="48" height="48" rx="24" stroke="white" stroke-opacity="0.15" stroke-width="2"/>
<defs>
<linearGradient id="paint0_linear_1174_278589" x1="25" y1="0" x2="25" y2="50" gradientUnits="userSpaceOnUse">
<stop stop-color="#4F1AD6"/>
<stop offset="1" stop-color="#8059E3"/>
</linearGradient>
</defs>
</svg>
